<mxfile host="app.diagrams.net" modified="2023-06-05T16:18:29.424Z" agent="Mozilla/5.0 (Windows NT 10.0; Win64; x64) AppleWebKit/537.36 (KHTML, like Gecko) Chrome/112.0.0.0 Safari/537.36" etag="N9Z0a80My2l0Yjn5Dsjs" version="21.3.7" type="device">
  <diagram name="Page-1" id="YYm9k4VhXxB-wRZ0EEyy">
    <mxGraphModel dx="1434" dy="714" grid="1" gridSize="10" guides="1" tooltips="1" connect="1" arrows="1" fold="1" page="1" pageScale="1" pageWidth="850" pageHeight="1100" math="0" shadow="0">
      <root>
        <mxCell id="0" />
        <mxCell id="1" parent="0" />
        <mxCell id="dNRTxyENDYDEVlTgnXsT-16" value="" style="rounded=0;whiteSpace=wrap;html=1;" vertex="1" parent="1">
          <mxGeometry x="130" y="60" width="660" height="260" as="geometry" />
        </mxCell>
        <mxCell id="dNRTxyENDYDEVlTgnXsT-1" value="«interface»&lt;br&gt;&lt;b&gt;Mediator&lt;/b&gt;" style="html=1;whiteSpace=wrap;" vertex="1" parent="1">
          <mxGeometry x="180" y="80" width="110" height="50" as="geometry" />
        </mxCell>
        <mxCell id="dNRTxyENDYDEVlTgnXsT-10" style="edgeStyle=orthogonalEdgeStyle;rounded=0;orthogonalLoop=1;jettySize=auto;html=1;entryX=0.5;entryY=1;entryDx=0;entryDy=0;endArrow=block;endFill=0;" edge="1" parent="1" source="dNRTxyENDYDEVlTgnXsT-2" target="dNRTxyENDYDEVlTgnXsT-1">
          <mxGeometry relative="1" as="geometry" />
        </mxCell>
        <mxCell id="dNRTxyENDYDEVlTgnXsT-11" style="edgeStyle=orthogonalEdgeStyle;rounded=0;orthogonalLoop=1;jettySize=auto;html=1;entryX=0;entryY=0.5;entryDx=0;entryDy=0;" edge="1" parent="1" source="dNRTxyENDYDEVlTgnXsT-2" target="dNRTxyENDYDEVlTgnXsT-6">
          <mxGeometry relative="1" as="geometry" />
        </mxCell>
        <mxCell id="dNRTxyENDYDEVlTgnXsT-12" style="edgeStyle=orthogonalEdgeStyle;rounded=0;orthogonalLoop=1;jettySize=auto;html=1;entryX=0.5;entryY=1;entryDx=0;entryDy=0;exitX=0.5;exitY=1;exitDx=0;exitDy=0;" edge="1" parent="1" source="dNRTxyENDYDEVlTgnXsT-2" target="dNRTxyENDYDEVlTgnXsT-7">
          <mxGeometry relative="1" as="geometry" />
        </mxCell>
        <mxCell id="dNRTxyENDYDEVlTgnXsT-2" value="ConcreteMediator" style="swimlane;fontStyle=1;align=center;verticalAlign=top;childLayout=stackLayout;horizontal=1;startSize=26;horizontalStack=0;resizeParent=1;resizeParentMax=0;resizeLast=0;collapsible=1;marginBottom=0;whiteSpace=wrap;html=1;" vertex="1" parent="1">
          <mxGeometry x="155" y="210" width="160" height="52" as="geometry" />
        </mxCell>
        <mxCell id="dNRTxyENDYDEVlTgnXsT-13" style="edgeStyle=orthogonalEdgeStyle;rounded=0;orthogonalLoop=1;jettySize=auto;html=1;entryX=0.25;entryY=1;entryDx=0;entryDy=0;endArrow=block;endFill=0;" edge="1" parent="1" source="dNRTxyENDYDEVlTgnXsT-6" target="dNRTxyENDYDEVlTgnXsT-9">
          <mxGeometry relative="1" as="geometry" />
        </mxCell>
        <mxCell id="dNRTxyENDYDEVlTgnXsT-6" value="ConcreteColleague1" style="swimlane;fontStyle=1;align=center;verticalAlign=top;childLayout=stackLayout;horizontal=1;startSize=26;horizontalStack=0;resizeParent=1;resizeParentMax=0;resizeLast=0;collapsible=1;marginBottom=0;whiteSpace=wrap;html=1;" vertex="1" parent="1">
          <mxGeometry x="410" y="210" width="160" height="52" as="geometry" />
        </mxCell>
        <mxCell id="dNRTxyENDYDEVlTgnXsT-14" style="edgeStyle=orthogonalEdgeStyle;rounded=0;orthogonalLoop=1;jettySize=auto;html=1;entryX=0.75;entryY=1;entryDx=0;entryDy=0;endArrow=block;endFill=0;" edge="1" parent="1" source="dNRTxyENDYDEVlTgnXsT-7" target="dNRTxyENDYDEVlTgnXsT-9">
          <mxGeometry relative="1" as="geometry" />
        </mxCell>
        <mxCell id="dNRTxyENDYDEVlTgnXsT-7" value="ConcreteColleague2" style="swimlane;fontStyle=1;align=center;verticalAlign=top;childLayout=stackLayout;horizontal=1;startSize=26;horizontalStack=0;resizeParent=1;resizeParentMax=0;resizeLast=0;collapsible=1;marginBottom=0;whiteSpace=wrap;html=1;" vertex="1" parent="1">
          <mxGeometry x="600" y="210" width="160" height="52" as="geometry" />
        </mxCell>
        <mxCell id="dNRTxyENDYDEVlTgnXsT-15" style="edgeStyle=orthogonalEdgeStyle;rounded=0;orthogonalLoop=1;jettySize=auto;html=1;entryX=1;entryY=0.5;entryDx=0;entryDy=0;dashed=1;dashPattern=8 8;" edge="1" parent="1" source="dNRTxyENDYDEVlTgnXsT-9" target="dNRTxyENDYDEVlTgnXsT-1">
          <mxGeometry relative="1" as="geometry" />
        </mxCell>
        <mxCell id="dNRTxyENDYDEVlTgnXsT-9" value="«interface»&lt;br&gt;&lt;b&gt;Colleague&lt;/b&gt;" style="html=1;whiteSpace=wrap;" vertex="1" parent="1">
          <mxGeometry x="540" y="80" width="110" height="50" as="geometry" />
        </mxCell>
      </root>
    </mxGraphModel>
  </diagram>
</mxfile>
